<svg xmlns="http://www.w3.org/2000/svg" width="236" height="111" viewBox="0 0 236 111" fill="none">
  <path d="M101.873 36.3924C100.691 36.3924 99.7747 36.5763 99.1087 36.9443C98.4426 37.3122 98.0263 37.8808 97.8598 38.6334L100.274 38.8174C100.341 38.6 100.507 38.4495 100.774 38.3157C101.04 38.1986 101.39 38.1317 101.806 38.1317C102.222 38.1317 102.556 38.2153 102.772 38.3658C103.005 38.5331 103.122 38.7505 103.122 39.0515V39.3693L101.54 39.4027C100.124 39.4362 99.0754 39.6536 98.3927 40.055C97.7266 40.4564 97.3936 41.0417 97.3936 41.8111C97.3936 42.5302 97.66 43.0654 98.1762 43.4501C98.6924 43.8347 99.4417 44.0187 100.407 44.0187C101.007 44.0187 101.523 43.9351 101.973 43.7511C102.422 43.5839 102.839 43.2995 103.222 42.9149V43.8013H105.636V39.2857C105.636 37.3791 104.387 36.3924 101.873 36.3924ZM103.138 40.9916C103.138 41.3261 102.988 41.6104 102.689 41.878C102.522 42.0118 102.306 42.1288 102.056 42.1957C101.79 42.2626 101.506 42.3128 101.207 42.3128C100.374 42.3128 99.9412 42.0954 99.9412 41.6605C99.9412 41.3762 100.074 41.1755 100.358 41.0417C100.624 40.9247 101.09 40.841 101.723 40.8243L103.138 40.7909V40.9916ZM202.78 36.3924C201.881 36.3924 201.115 36.5596 200.449 36.8941C199.8 37.2286 199.283 37.6969 198.95 38.2822C198.601 38.8676 198.434 39.5533 198.434 40.3059C198.434 41.4933 198.8 42.4131 199.55 43.0654C200.299 43.7176 201.348 44.0354 202.714 44.0354C205.111 44.0354 206.493 43.1825 206.876 41.4933H204.379C204.179 41.9783 203.663 42.2292 202.797 42.2292C202.264 42.2292 201.831 42.1121 201.531 41.878C201.232 41.6438 201.048 41.3093 200.998 40.8578H206.96V40.1553C206.96 38.9512 206.593 38.0313 205.861 37.3791C205.128 36.7268 204.112 36.3924 202.78 36.3924ZM201.048 39.4195C201.098 39.0515 201.282 38.7505 201.598 38.5331C201.914 38.2989 202.297 38.1819 202.747 38.1819C203.829 38.1819 204.395 38.6 204.445 39.4195H201.048ZM91.8487 36.3924C90.9495 36.3924 90.1835 36.5596 89.5175 36.8941C88.8681 37.2286 88.3519 37.6969 88.0188 38.2822C87.6692 38.8676 87.5027 39.5533 87.5027 40.3059C87.5027 41.4933 87.869 42.4131 88.6183 43.0654C89.3676 43.7176 90.4166 44.0354 91.7821 44.0354C94.1799 44.0354 95.5619 43.1825 95.9449 41.4933H93.4472C93.2474 41.9783 92.7312 42.2292 91.8653 42.2292C91.3325 42.2292 90.8995 42.1121 90.5998 41.878C90.3001 41.6438 90.1169 41.3093 90.067 40.8578H96.0282V40.1553C96.0282 38.9512 95.6618 38.0313 94.9292 37.3791C94.1965 36.7268 93.1641 36.3924 91.8487 36.3924ZM90.1003 39.4195C90.1502 39.0515 90.3334 38.7505 90.6498 38.5331C90.9661 38.2989 91.3491 38.1819 91.7987 38.1819C92.8811 38.1819 93.4472 38.6 93.4971 39.4195H90.1003ZM111.98 41.9616C111.631 41.9616 111.364 41.878 111.214 41.7274C111.048 41.5769 110.981 41.3428 110.981 41.025V38.6H113.112V36.6265H110.981V34.7366H108.267V36.6265H106.902V38.6H108.267V41.2257C108.267 42.1957 108.5 42.8982 108.966 43.333C109.433 43.7678 110.165 43.9852 111.198 43.9852C111.997 43.9852 112.729 43.8682 113.429 43.634L113.096 41.7776C112.646 41.8947 112.28 41.9616 111.98 41.9616ZM51.9686 25.7222L45.7909 31.9102C43.6929 30.405 41.1452 29.5186 38.3811 29.5186C31.3209 29.5186 25.5762 35.2885 25.5762 42.3797C25.5762 48.735 30.2053 54.0366 36.2497 55.0568V59.7062C30.2053 60.7264 25.5762 66.028 25.5762 72.3833C25.5762 79.4745 31.3209 85.2444 38.3811 85.2444C45.4413 85.2444 51.186 79.4745 51.186 72.3833C51.186 66.028 46.5569 60.7264 40.5125 59.7062V55.0568C46.5569 54.0366 51.186 48.735 51.186 42.3797C51.186 39.6034 50.3035 37.0446 48.8048 34.9373L54.9825 28.7493L51.9686 25.7222ZM46.9232 72.4168C46.9232 77.1498 43.0934 80.9964 38.3811 80.9964C33.6687 80.9964 29.8389 77.1498 29.8389 72.4168C29.8389 67.6838 33.6687 63.8371 38.3811 63.8371C43.0934 63.8371 46.9232 67.6838 46.9232 72.4168ZM38.3977 50.976C33.6854 50.976 29.8556 47.1294 29.8556 42.3964C29.8556 37.6634 33.6854 33.8168 38.3977 33.8168C43.1101 33.8168 46.9399 37.6634 46.9399 42.3964C46.9399 47.1294 43.0934 50.976 38.3977 50.976ZM75.3971 41.3762C75.0141 41.6271 74.4979 41.7609 73.8319 41.7609C72.966 41.7609 72.3166 41.51 71.8337 41.025C71.3675 40.5233 71.1343 39.8376 71.1343 38.9345C71.1343 38.0481 71.3675 37.3456 71.8337 36.8439C72.2999 36.3422 72.9493 36.0913 73.7819 36.0913C74.3814 36.0913 74.8643 36.2084 75.2139 36.4425C75.5636 36.6767 75.83 37.0613 75.9965 37.5798L78.8772 37.2453C78.5942 36.0746 78.028 35.2049 77.1954 34.6363C76.3462 34.0509 75.2306 33.7666 73.8152 33.7666C72.633 33.7666 71.6339 33.984 70.7847 34.4189C69.9354 34.8537 69.3027 35.4558 68.8531 36.2251C68.4035 37.0112 68.1871 37.8975 68.1871 38.9177C68.1871 39.9881 68.4202 40.9079 68.8864 41.694C69.3526 42.48 70.0021 43.0654 70.8346 43.4668C71.6672 43.8682 72.6663 44.0689 73.8152 44.0689C75.3638 44.0689 76.596 43.7344 77.5118 43.0487C78.4277 42.363 78.9605 41.4097 79.0937 40.1888H76.1964C76.0299 40.7407 75.7801 41.1254 75.3971 41.3762ZM208.042 59.2881H210.606V56.562H208.042V59.2881ZM208.042 41.1086V43.8347H210.606V41.1086H208.042ZM83.3565 37.63V36.6098H80.7089V43.818H83.4231V40.0884C83.4231 39.8878 83.473 39.7038 83.5563 39.5198C83.6395 39.3358 83.7727 39.1686 83.9559 39.0348C84.3555 38.717 84.8717 38.5665 85.5378 38.5665C85.8209 38.5665 86.1206 38.6 86.4203 38.6501L86.72 36.5429C86.437 36.4927 86.1539 36.4592 85.8708 36.4592C84.8717 36.4927 84.0225 36.8774 83.3565 37.63ZM140.587 41.3762C140.204 41.6271 139.688 41.7609 139.022 41.7609C138.173 41.7609 137.507 41.51 137.024 41.025C136.558 40.5233 136.324 39.8376 136.324 38.9345C136.324 38.0481 136.558 37.3456 137.024 36.8439C137.49 36.3422 138.14 36.0913 138.972 36.0913C139.572 36.0913 140.054 36.2084 140.404 36.4425C140.754 36.6767 141.02 37.0613 141.187 37.5798L144.067 37.2453C143.784 36.0746 143.218 35.2049 142.386 34.6363C141.536 34.0509 140.421 33.7666 139.005 33.7666C137.823 33.7666 136.824 33.984 135.975 34.4189C135.126 34.8537 134.493 35.4558 134.043 36.2251C133.594 37.0112 133.377 37.8975 133.377 38.9177C133.377 39.9881 133.61 40.9079 134.06 41.694C134.526 42.48 135.176 43.0654 136.008 43.4668C136.841 43.8682 137.84 44.0689 138.989 44.0689C140.537 44.0689 141.77 43.7344 142.685 43.0487C143.601 42.363 144.134 41.4097 144.267 40.1888H141.37C141.22 40.7407 140.97 41.1254 140.587 41.3762ZM195.92 41.9616C195.57 41.9616 195.304 41.878 195.154 41.7274C194.987 41.5769 194.921 41.3428 194.921 41.025V38.6H197.052V36.6265H194.921V34.7366H192.207V36.6265H190.841V38.6H192.207V41.2257C192.207 42.1957 192.44 42.8982 192.906 43.333C193.372 43.7678 194.105 43.9852 195.137 43.9852C195.936 43.9852 196.669 43.8682 197.368 43.634L197.035 41.7776C196.586 41.8947 196.22 41.9616 195.92 41.9616ZM173.574 55.3913H178.985V53.1837H173.574V51.6785H179.268V49.4708H170.76V59.2881H179.318L179.585 57.0805H173.557V55.3913H173.574ZM173.424 43.0319C174.007 43.7176 174.823 44.0521 175.888 44.0521C176.637 44.0521 177.304 43.8849 177.87 43.5504C178.436 43.2159 178.852 42.7476 179.152 42.1456C179.452 41.5435 179.601 40.8745 179.601 40.1219C179.601 39.3693 179.452 38.717 179.152 38.1484C178.852 37.5798 178.436 37.1449 177.92 36.8439C177.403 36.5429 176.804 36.3924 176.155 36.3924C174.956 36.3924 174.023 36.7937 173.374 37.5965V36.6265H170.726V46.4939H173.44V43.0319H173.424ZM173.407 40.055C173.407 39.5867 173.557 39.2021 173.873 38.901C174.223 38.5665 174.656 38.3993 175.172 38.3993C175.705 38.3993 176.121 38.5498 176.421 38.8676C176.721 39.1853 176.854 39.6202 176.854 40.2055C176.854 40.8076 176.704 41.2759 176.404 41.5769C176.105 41.8947 175.688 42.0452 175.122 42.0452C174.589 42.0452 174.173 41.8947 173.857 41.5769C173.54 41.2592 173.39 40.8578 173.39 40.3393V40.055H173.407ZM185.146 51.8457C183.964 51.8457 183.048 52.0297 182.382 52.3976C181.716 52.7656 181.3 53.3342 181.133 54.0868L183.548 54.2708C183.614 54.0533 183.781 53.9028 184.047 53.769C184.314 53.652 184.663 53.5851 185.08 53.5851C185.496 53.5851 185.829 53.6687 186.046 53.8192C186.279 53.9864 186.395 54.2039 186.395 54.5049V54.8227L184.813 54.8561C183.398 54.8896 182.349 55.107 181.666 55.5084C181 55.9098 180.667 56.4951 180.667 57.2644C180.667 57.9836 180.934 58.5188 181.45 58.9034C181.966 59.2881 182.715 59.4721 183.681 59.4721C184.28 59.4721 184.797 59.3884 185.246 59.2045C185.696 59.0372 186.112 58.7529 186.495 58.3682V59.2546H188.91V54.739C188.91 52.8325 187.644 51.8457 185.146 51.8457ZM186.395 56.4449C186.395 56.7794 186.245 57.0637 185.946 57.3313C185.779 57.4651 185.563 57.5822 185.313 57.6491C185.046 57.716 184.763 57.7662 184.464 57.7662C183.631 57.7662 183.198 57.5487 183.198 57.1139C183.198 56.8296 183.331 56.6289 183.614 56.4951C183.881 56.378 184.347 56.2944 184.98 56.2777L186.395 56.2442V56.4449ZM193.389 53.0833V52.0631H190.741V59.2714H193.455V55.5418C193.455 55.3411 193.505 55.1572 193.589 54.9732C193.672 54.7892 193.805 54.622 193.988 54.4882C194.388 54.1704 194.904 54.0199 195.57 54.0199C195.853 54.0199 196.153 54.0533 196.453 54.1035L196.752 51.9962C196.469 51.9461 196.186 51.9126 195.903 51.9126C194.887 51.9461 194.055 52.3307 193.389 53.0833ZM166.197 36.3924C165.015 36.3924 164.066 36.8272 163.35 37.6801C163.133 37.262 162.833 36.9443 162.434 36.7101C162.034 36.4927 161.551 36.3756 160.985 36.3756C159.953 36.3756 159.087 36.777 158.371 37.5965V36.593H155.723V43.8013H158.438V39.871C158.438 39.5031 158.571 39.1853 158.854 38.901C159.004 38.7505 159.17 38.6334 159.353 38.5498C159.537 38.4662 159.736 38.4327 159.936 38.4327C160.302 38.4327 160.569 38.5164 160.719 38.7003C160.885 38.8843 160.952 39.1686 160.952 39.5867V43.8013H163.666V39.7874C163.666 39.4529 163.799 39.1519 164.082 38.8843C164.399 38.5833 164.765 38.4327 165.165 38.4327C165.531 38.4327 165.797 38.5331 165.947 38.717C166.114 38.901 166.18 39.2021 166.18 39.5867V43.8013H168.895V39.1352C168.895 38.2822 168.661 37.5965 168.195 37.1282C167.712 36.6432 167.046 36.3924 166.197 36.3924ZM186.595 40.5066C186.595 40.6905 186.562 40.8745 186.478 41.0417C186.395 41.2257 186.279 41.3762 186.129 41.51C185.762 41.8278 185.363 41.995 184.93 41.995C184.53 41.995 184.247 41.8947 184.047 41.7107C183.848 41.5267 183.764 41.209 183.764 40.8076V36.6265H181.05V41.3093C181.05 42.1623 181.3 42.848 181.799 43.333C182.299 43.818 182.982 44.0689 183.864 44.0689C184.947 44.0689 185.862 43.6675 186.628 42.848V43.8514H189.276V36.6432H186.562V40.5066H186.595ZM124.119 43.8347H126.683V41.1086H124.119V43.8347ZM118.841 36.3924C117.941 36.3924 117.175 36.5596 116.509 36.8941C115.86 37.2286 115.344 37.6969 115.011 38.2822C114.661 38.8676 114.495 39.5533 114.495 40.3059C114.495 41.4933 114.861 42.4131 115.61 43.0654C116.359 43.7176 117.409 44.0354 118.774 44.0354C121.172 44.0354 122.554 43.1825 122.937 41.4933H120.439C120.239 41.9783 119.723 42.2292 118.857 42.2292C118.324 42.2292 117.891 42.1121 117.592 41.878C117.292 41.6438 117.109 41.3093 117.059 40.8578H123.02V40.1553C123.02 38.9512 122.654 38.0313 121.921 37.3791C121.188 36.7268 120.173 36.3924 118.841 36.3924ZM117.109 39.4195C117.159 39.0515 117.342 38.7505 117.658 38.5331C117.975 38.2989 118.358 38.1819 118.807 38.1819C119.89 38.1819 120.456 38.6 120.506 39.4195H117.109ZM153.026 37.3958C152.26 36.7268 151.178 36.3924 149.779 36.3924C148.38 36.3924 147.281 36.7436 146.482 37.4293C145.683 38.115 145.283 39.0683 145.283 40.2557C145.283 41.4599 145.666 42.3964 146.432 43.0487C147.198 43.7176 148.28 44.0521 149.679 44.0521C151.078 44.0521 152.177 43.7009 152.976 43.0152C153.775 42.3295 154.175 41.393 154.175 40.2055C154.175 39.0014 153.792 38.0648 153.026 37.3958ZM150.994 41.5769C150.695 41.8947 150.278 42.0452 149.729 42.0452C149.179 42.0452 148.746 41.8947 148.463 41.5769C148.164 41.2592 148.03 40.8243 148.03 40.2222C148.03 39.6202 148.18 39.1686 148.48 38.8676C148.78 38.5498 149.196 38.3993 149.746 38.3993C150.295 38.3993 150.728 38.5498 151.011 38.8676C151.311 39.1853 151.444 39.6202 151.444 40.2222C151.444 40.8076 151.294 41.2592 150.994 41.5769ZM203.396 51.8457C202.281 51.8457 201.331 52.2471 200.582 53.0666V52.0631H197.935V59.2714H200.649V55.3746C200.649 55.0066 200.799 54.6721 201.115 54.3878C201.282 54.2373 201.465 54.1035 201.698 54.0199C201.914 53.9363 202.147 53.8861 202.364 53.8861C202.78 53.8861 203.097 53.9864 203.28 54.1704C203.48 54.3711 203.579 54.6721 203.579 55.0903V59.2546H206.294V54.5718C206.294 53.7021 206.044 53.0332 205.528 52.5481C205.011 52.0966 204.295 51.8457 203.396 51.8457Z" fill="white"/>
</svg>